# xmcd
#
# Track frame offsets:
# 150
# 27131
# 49507
# 72009
# 96617
# 116129
# 132987
# 154852
# 175959
# 200407
# 218079
# 238439
# 256060
# 281569
#
# Disc length: 4016 seconds
#
#
# Revision: 0
# Processed by: cddbd v1.5.2PL0 Copyright (c) Steve Scherf et al.
# Submitted via: FreeRIP 2.96 
#
DISCID=cf0fae0e
DTITLE=London after Midnight - Violent Acts of Beauty
DYEAR=2007
DGENRE=Gothic
TTITLE0=The Beginning of the End
TTITLE1=Feeling Fascist
TTITLE2=Nothing's Sacred
TTITLE3=Heaven Now
TTITLE4=America's a Fucking Disease
TTITLE5=Complex Messiah
TTITLE6=Republic
TTITLE7=Fear
TTITLE8=Pure
TTITLE9=The Kids Are All Wrong
TTITLE10=Love You To Death
TTITLE11=The Pain Looks Good on You
TTITLE12=Nothing's Sacred (Edit Club Mix)
TTITLE13=America's a F***ing Disease (edit)
EXTD=
EXTT0=
EXTT1=
EXTT2=
EXTT3=
EXTT4=
EXTT5=
EXTT6=
EXTT7=
EXTT8=
EXTT9=
EXTT10=
EXTT11=
EXTT12=
EXTT13=
PLAYORDER=
